<mxfile host="app.diagrams.net" agent="Mozilla/5.0 (Macintosh; Intel Mac OS X 10_15_7) AppleWebKit/537.36 (KHTML, like Gecko) Chrome/132.0.0.0 Safari/537.36" version="26.0.11">
  <diagram name="Page-1" id="efa7a0a1-bf9b-a30e-e6df-94a7791c09e9">
    <mxGraphModel dx="2049" dy="964" grid="1" gridSize="10" guides="1" tooltips="1" connect="1" arrows="1" fold="1" page="1" pageScale="1" pageWidth="827" pageHeight="1169" background="none" math="0" shadow="0">
      <root>
        <mxCell id="0" />
        <mxCell id="1" parent="0" />
        <mxCell id="m3P9-Rap83-5cIKMZRRc-152" value="" style="edgeStyle=orthogonalEdgeStyle;rounded=0;orthogonalLoop=1;jettySize=auto;html=1;endArrow=none;startFill=0;exitX=0.5;exitY=0;exitDx=0;exitDy=0;" edge="1" parent="1" source="m3P9-Rap83-5cIKMZRRc-114">
          <mxGeometry relative="1" as="geometry">
            <mxPoint x="490" y="267" as="sourcePoint" />
            <mxPoint x="560" y="190" as="targetPoint" />
          </mxGeometry>
        </mxCell>
        <mxCell id="m3P9-Rap83-5cIKMZRRc-185" style="edgeStyle=orthogonalEdgeStyle;rounded=0;orthogonalLoop=1;jettySize=auto;html=1;entryX=0.75;entryY=1;entryDx=0;entryDy=0;endArrow=none;startFill=0;" edge="1" parent="1" source="m3P9-Rap83-5cIKMZRRc-114" target="m3P9-Rap83-5cIKMZRRc-166">
          <mxGeometry relative="1" as="geometry">
            <Array as="points">
              <mxPoint x="560" y="230" />
              <mxPoint x="378" y="230" />
            </Array>
          </mxGeometry>
        </mxCell>
        <mxCell id="m3P9-Rap83-5cIKMZRRc-114" value="Event" style="swimlane;fontStyle=0;childLayout=stackLayout;horizontal=1;startSize=26;fillColor=#dae8fc;horizontalStack=0;resizeParent=1;resizeParentMax=0;resizeLast=0;collapsible=1;marginBottom=0;whiteSpace=wrap;html=1;strokeColor=#6c8ebf;" vertex="1" parent="1">
          <mxGeometry x="490" y="254" width="140" height="234" as="geometry" />
        </mxCell>
        <mxCell id="m3P9-Rap83-5cIKMZRRc-115" value="eventId" style="text;strokeColor=#666666;fillColor=#f5f5f5;align=left;verticalAlign=top;spacingLeft=4;spacingRight=4;overflow=hidden;rotatable=0;points=[[0,0.5],[1,0.5]];portConstraint=eastwest;whiteSpace=wrap;html=1;fontColor=#333333;" vertex="1" parent="m3P9-Rap83-5cIKMZRRc-114">
          <mxGeometry y="26" width="140" height="26" as="geometry" />
        </mxCell>
        <mxCell id="m3P9-Rap83-5cIKMZRRc-116" value="title" style="text;strokeColor=#666666;fillColor=#f5f5f5;align=left;verticalAlign=top;spacingLeft=4;spacingRight=4;overflow=hidden;rotatable=0;points=[[0,0.5],[1,0.5]];portConstraint=eastwest;whiteSpace=wrap;html=1;fontColor=#333333;" vertex="1" parent="m3P9-Rap83-5cIKMZRRc-114">
          <mxGeometry y="52" width="140" height="26" as="geometry" />
        </mxCell>
        <mxCell id="m3P9-Rap83-5cIKMZRRc-117" value="description" style="text;strokeColor=#666666;fillColor=#f5f5f5;align=left;verticalAlign=top;spacingLeft=4;spacingRight=4;overflow=hidden;rotatable=0;points=[[0,0.5],[1,0.5]];portConstraint=eastwest;whiteSpace=wrap;html=1;fontColor=#333333;" vertex="1" parent="m3P9-Rap83-5cIKMZRRc-114">
          <mxGeometry y="78" width="140" height="26" as="geometry" />
        </mxCell>
        <mxCell id="m3P9-Rap83-5cIKMZRRc-118" value="startDate" style="text;strokeColor=#666666;fillColor=#f5f5f5;align=left;verticalAlign=top;spacingLeft=4;spacingRight=4;overflow=hidden;rotatable=0;points=[[0,0.5],[1,0.5]];portConstraint=eastwest;whiteSpace=wrap;html=1;fontColor=#333333;" vertex="1" parent="m3P9-Rap83-5cIKMZRRc-114">
          <mxGeometry y="104" width="140" height="26" as="geometry" />
        </mxCell>
        <mxCell id="m3P9-Rap83-5cIKMZRRc-121" value="endDate" style="text;strokeColor=#666666;fillColor=#f5f5f5;align=left;verticalAlign=top;spacingLeft=4;spacingRight=4;overflow=hidden;rotatable=0;points=[[0,0.5],[1,0.5]];portConstraint=eastwest;whiteSpace=wrap;html=1;fontColor=#333333;fontFamily=Helvetica;fontSize=12;" vertex="1" parent="m3P9-Rap83-5cIKMZRRc-114">
          <mxGeometry y="130" width="140" height="26" as="geometry" />
        </mxCell>
        <mxCell id="m3P9-Rap83-5cIKMZRRc-125" value="visibility" style="text;strokeColor=#666666;fillColor=#f5f5f5;align=left;verticalAlign=top;spacingLeft=4;spacingRight=4;overflow=hidden;rotatable=0;points=[[0,0.5],[1,0.5]];portConstraint=eastwest;whiteSpace=wrap;html=1;fontColor=#333333;fontFamily=Helvetica;fontSize=12;" vertex="1" parent="m3P9-Rap83-5cIKMZRRc-114">
          <mxGeometry y="156" width="140" height="26" as="geometry" />
        </mxCell>
        <mxCell id="m3P9-Rap83-5cIKMZRRc-123" value="status" style="text;strokeColor=#666666;fillColor=#f5f5f5;align=left;verticalAlign=top;spacingLeft=4;spacingRight=4;overflow=hidden;rotatable=0;points=[[0,0.5],[1,0.5]];portConstraint=eastwest;whiteSpace=wrap;html=1;fontColor=#333333;fontFamily=Helvetica;fontSize=12;" vertex="1" parent="m3P9-Rap83-5cIKMZRRc-114">
          <mxGeometry y="182" width="140" height="26" as="geometry" />
        </mxCell>
        <mxCell id="m3P9-Rap83-5cIKMZRRc-124" value="maxGuests" style="text;strokeColor=#666666;fillColor=#f5f5f5;align=left;verticalAlign=top;spacingLeft=4;spacingRight=4;overflow=hidden;rotatable=0;points=[[0,0.5],[1,0.5]];portConstraint=eastwest;whiteSpace=wrap;html=1;fontColor=#333333;fontFamily=Helvetica;fontSize=12;" vertex="1" parent="m3P9-Rap83-5cIKMZRRc-114">
          <mxGeometry y="208" width="140" height="26" as="geometry" />
        </mxCell>
        <mxCell id="m3P9-Rap83-5cIKMZRRc-127" value="Guest" style="swimlane;fontStyle=0;childLayout=stackLayout;horizontal=1;startSize=26;fillColor=#dae8fc;horizontalStack=0;resizeParent=1;resizeParentMax=0;resizeLast=0;collapsible=1;marginBottom=0;whiteSpace=wrap;html=1;strokeColor=#6c8ebf;" vertex="1" parent="1">
          <mxGeometry x="90" y="112" width="140" height="104" as="geometry" />
        </mxCell>
        <mxCell id="m3P9-Rap83-5cIKMZRRc-128" value="guestId" style="text;strokeColor=#666666;fillColor=#f5f5f5;align=left;verticalAlign=top;spacingLeft=4;spacingRight=4;overflow=hidden;rotatable=0;points=[[0,0.5],[1,0.5]];portConstraint=eastwest;whiteSpace=wrap;html=1;fontColor=#333333;" vertex="1" parent="m3P9-Rap83-5cIKMZRRc-127">
          <mxGeometry y="26" width="140" height="26" as="geometry" />
        </mxCell>
        <mxCell id="m3P9-Rap83-5cIKMZRRc-129" value="viaEmail" style="text;strokeColor=#666666;fillColor=#f5f5f5;align=left;verticalAlign=top;spacingLeft=4;spacingRight=4;overflow=hidden;rotatable=0;points=[[0,0.5],[1,0.5]];portConstraint=eastwest;whiteSpace=wrap;html=1;fontColor=#333333;" vertex="1" parent="m3P9-Rap83-5cIKMZRRc-127">
          <mxGeometry y="52" width="140" height="26" as="geometry" />
        </mxCell>
        <mxCell id="m3P9-Rap83-5cIKMZRRc-130" value="name" style="text;strokeColor=#666666;fillColor=#f5f5f5;align=left;verticalAlign=top;spacingLeft=4;spacingRight=4;overflow=hidden;rotatable=0;points=[[0,0.5],[1,0.5]];portConstraint=eastwest;whiteSpace=wrap;html=1;fontColor=#333333;" vertex="1" parent="m3P9-Rap83-5cIKMZRRc-127">
          <mxGeometry y="78" width="140" height="26" as="geometry" />
        </mxCell>
        <mxCell id="m3P9-Rap83-5cIKMZRRc-142" style="edgeStyle=orthogonalEdgeStyle;rounded=0;orthogonalLoop=1;jettySize=auto;html=1;exitX=0;exitY=0.5;exitDx=0;exitDy=0;endArrow=none;startFill=0;" edge="1" parent="1" source="m3P9-Rap83-5cIKMZRRc-115" target="m3P9-Rap83-5cIKMZRRc-129">
          <mxGeometry relative="1" as="geometry">
            <Array as="points">
              <mxPoint x="275" y="289" />
              <mxPoint x="275" y="177" />
            </Array>
          </mxGeometry>
        </mxCell>
        <mxCell id="m3P9-Rap83-5cIKMZRRc-144" value="1..*" style="text;html=1;align=center;verticalAlign=middle;resizable=0;points=[];autosize=1;strokeColor=none;fillColor=none;fontFamily=Helvetica;fontSize=12;fontColor=default;" vertex="1" parent="1">
          <mxGeometry x="230.00000000000006" y="170" width="40" height="30" as="geometry" />
        </mxCell>
        <mxCell id="m3P9-Rap83-5cIKMZRRc-145" value="Location" style="swimlane;fontStyle=0;childLayout=stackLayout;horizontal=1;startSize=26;fillColor=#dae8fc;horizontalStack=0;resizeParent=1;resizeParentMax=0;resizeLast=0;collapsible=1;marginBottom=0;whiteSpace=wrap;html=1;strokeColor=#6c8ebf;" vertex="1" parent="1">
          <mxGeometry x="490" y="34" width="140" height="156" as="geometry" />
        </mxCell>
        <mxCell id="m3P9-Rap83-5cIKMZRRc-146" value="locationId" style="text;strokeColor=#666666;fillColor=#f5f5f5;align=left;verticalAlign=top;spacingLeft=4;spacingRight=4;overflow=hidden;rotatable=0;points=[[0,0.5],[1,0.5]];portConstraint=eastwest;whiteSpace=wrap;html=1;fontColor=#333333;" vertex="1" parent="m3P9-Rap83-5cIKMZRRc-145">
          <mxGeometry y="26" width="140" height="26" as="geometry" />
        </mxCell>
        <mxCell id="m3P9-Rap83-5cIKMZRRc-147" value="name" style="text;strokeColor=#666666;fillColor=#f5f5f5;align=left;verticalAlign=top;spacingLeft=4;spacingRight=4;overflow=hidden;rotatable=0;points=[[0,0.5],[1,0.5]];portConstraint=eastwest;whiteSpace=wrap;html=1;fontColor=#333333;" vertex="1" parent="m3P9-Rap83-5cIKMZRRc-145">
          <mxGeometry y="52" width="140" height="26" as="geometry" />
        </mxCell>
        <mxCell id="m3P9-Rap83-5cIKMZRRc-150" value="availableStart" style="text;strokeColor=#666666;fillColor=#f5f5f5;align=left;verticalAlign=top;spacingLeft=4;spacingRight=4;overflow=hidden;rotatable=0;points=[[0,0.5],[1,0.5]];portConstraint=eastwest;whiteSpace=wrap;html=1;fontColor=#333333;" vertex="1" parent="m3P9-Rap83-5cIKMZRRc-145">
          <mxGeometry y="78" width="140" height="26" as="geometry" />
        </mxCell>
        <mxCell id="m3P9-Rap83-5cIKMZRRc-151" value="availableEnd" style="text;strokeColor=#666666;fillColor=#f5f5f5;align=left;verticalAlign=top;spacingLeft=4;spacingRight=4;overflow=hidden;rotatable=0;points=[[0,0.5],[1,0.5]];portConstraint=eastwest;whiteSpace=wrap;html=1;fontColor=#333333;" vertex="1" parent="m3P9-Rap83-5cIKMZRRc-145">
          <mxGeometry y="104" width="140" height="26" as="geometry" />
        </mxCell>
        <mxCell id="m3P9-Rap83-5cIKMZRRc-148" value="capacity" style="text;strokeColor=#666666;fillColor=#f5f5f5;align=left;verticalAlign=top;spacingLeft=4;spacingRight=4;overflow=hidden;rotatable=0;points=[[0,0.5],[1,0.5]];portConstraint=eastwest;whiteSpace=wrap;html=1;fontColor=#333333;" vertex="1" parent="m3P9-Rap83-5cIKMZRRc-145">
          <mxGeometry y="130" width="140" height="26" as="geometry" />
        </mxCell>
        <mxCell id="m3P9-Rap83-5cIKMZRRc-153" value="1" style="text;html=1;align=center;verticalAlign=middle;resizable=0;points=[];autosize=1;strokeColor=none;fillColor=none;" vertex="1" parent="1">
          <mxGeometry x="565" y="190" width="30" height="30" as="geometry" />
        </mxCell>
        <mxCell id="m3P9-Rap83-5cIKMZRRc-155" value="" style="edgeStyle=orthogonalEdgeStyle;rounded=0;orthogonalLoop=1;jettySize=auto;html=1;entryX=0;entryY=0.5;entryDx=0;entryDy=0;endArrow=none;startFill=0;dashed=1;" edge="1" parent="1" source="m3P9-Rap83-5cIKMZRRc-154" target="m3P9-Rap83-5cIKMZRRc-125">
          <mxGeometry relative="1" as="geometry" />
        </mxCell>
        <mxCell id="m3P9-Rap83-5cIKMZRRc-154" value="{Public, Private}" style="shape=note;whiteSpace=wrap;html=1;backgroundOutline=1;fontColor=#000000;darkOpacity=0.05;fillColor=#FFF9B2;strokeColor=none;fillStyle=solid;direction=west;gradientDirection=north;gradientColor=#FFF2A1;shadow=1;size=20;pointerEvents=1;" vertex="1" parent="1">
          <mxGeometry x="295" y="408" width="140" height="30" as="geometry" />
        </mxCell>
        <mxCell id="m3P9-Rap83-5cIKMZRRc-157" value="" style="edgeStyle=orthogonalEdgeStyle;rounded=0;orthogonalLoop=1;jettySize=auto;html=1;entryX=0;entryY=0.5;entryDx=0;entryDy=0;endArrow=none;startFill=0;dashed=1;" edge="1" parent="1" source="m3P9-Rap83-5cIKMZRRc-156" target="m3P9-Rap83-5cIKMZRRc-123">
          <mxGeometry relative="1" as="geometry" />
        </mxCell>
        <mxCell id="m3P9-Rap83-5cIKMZRRc-156" value="{Draft, Ready, Active, Canceled}" style="shape=note;whiteSpace=wrap;html=1;backgroundOutline=1;fontColor=#000000;darkOpacity=0.05;fillColor=#FFF9B2;strokeColor=none;fillStyle=solid;direction=west;gradientDirection=north;gradientColor=#FFF2A1;shadow=1;size=20;pointerEvents=1;" vertex="1" parent="1">
          <mxGeometry x="295" y="458" width="140" height="30" as="geometry" />
        </mxCell>
        <mxCell id="m3P9-Rap83-5cIKMZRRc-158" value="Invite" style="swimlane;fontStyle=0;childLayout=stackLayout;horizontal=1;startSize=26;fillColor=#dae8fc;horizontalStack=0;resizeParent=1;resizeParentMax=0;resizeLast=0;collapsible=1;marginBottom=0;whiteSpace=wrap;html=1;strokeColor=#6c8ebf;" vertex="1" parent="1">
          <mxGeometry x="89.99999999999999" y="328" width="140" height="78" as="geometry" />
        </mxCell>
        <mxCell id="m3P9-Rap83-5cIKMZRRc-159" value="inviteId" style="text;strokeColor=#666666;fillColor=#f5f5f5;align=left;verticalAlign=top;spacingLeft=4;spacingRight=4;overflow=hidden;rotatable=0;points=[[0,0.5],[1,0.5]];portConstraint=eastwest;whiteSpace=wrap;html=1;fontColor=#333333;" vertex="1" parent="m3P9-Rap83-5cIKMZRRc-158">
          <mxGeometry y="26" width="140" height="26" as="geometry" />
        </mxCell>
        <mxCell id="m3P9-Rap83-5cIKMZRRc-160" value="inviteStatus" style="text;strokeColor=#666666;fillColor=#f5f5f5;align=left;verticalAlign=top;spacingLeft=4;spacingRight=4;overflow=hidden;rotatable=0;points=[[0,0.5],[1,0.5]];portConstraint=eastwest;whiteSpace=wrap;html=1;fontColor=#333333;" vertex="1" parent="m3P9-Rap83-5cIKMZRRc-158">
          <mxGeometry y="52" width="140" height="26" as="geometry" />
        </mxCell>
        <mxCell id="m3P9-Rap83-5cIKMZRRc-163" value="" style="edgeStyle=orthogonalEdgeStyle;rounded=0;orthogonalLoop=1;jettySize=auto;html=1;endArrow=none;startFill=0;entryX=0;entryY=0.5;entryDx=0;entryDy=0;dashed=1;" edge="1" parent="1" source="m3P9-Rap83-5cIKMZRRc-162" target="m3P9-Rap83-5cIKMZRRc-160">
          <mxGeometry relative="1" as="geometry">
            <mxPoint x="199.95" y="410" as="targetPoint" />
            <Array as="points">
              <mxPoint x="70" y="393" />
            </Array>
          </mxGeometry>
        </mxCell>
        <mxCell id="m3P9-Rap83-5cIKMZRRc-162" value="{Accepted, Rejected, Extended}" style="shape=note;whiteSpace=wrap;html=1;backgroundOutline=1;fontColor=#000000;darkOpacity=0.05;fillColor=#FFF9B2;strokeColor=none;fillStyle=solid;direction=west;gradientDirection=north;gradientColor=#FFF2A1;shadow=1;size=20;pointerEvents=1;" vertex="1" parent="1">
          <mxGeometry x="29.999999999999986" y="440" width="140" height="30" as="geometry" />
        </mxCell>
        <mxCell id="m3P9-Rap83-5cIKMZRRc-164" value="" style="edgeStyle=orthogonalEdgeStyle;rounded=0;orthogonalLoop=1;jettySize=auto;html=1;endArrow=none;startFill=0;" edge="1" parent="1" source="m3P9-Rap83-5cIKMZRRc-159" target="m3P9-Rap83-5cIKMZRRc-118">
          <mxGeometry relative="1" as="geometry">
            <Array as="points">
              <mxPoint x="330" y="371" />
              <mxPoint x="330" y="371" />
            </Array>
          </mxGeometry>
        </mxCell>
        <mxCell id="m3P9-Rap83-5cIKMZRRc-165" value="0..*" style="text;html=1;align=center;verticalAlign=middle;resizable=0;points=[];autosize=1;strokeColor=none;fillColor=none;rotation=0;" vertex="1" parent="1">
          <mxGeometry x="230" y="350" width="40" height="30" as="geometry" />
        </mxCell>
        <mxCell id="m3P9-Rap83-5cIKMZRRc-166" value="Request" style="swimlane;fontStyle=0;childLayout=stackLayout;horizontal=1;startSize=26;fillColor=#dae8fc;horizontalStack=0;resizeParent=1;resizeParentMax=0;resizeLast=0;collapsible=1;marginBottom=0;whiteSpace=wrap;html=1;strokeColor=#6c8ebf;" vertex="1" parent="1">
          <mxGeometry x="273" y="8" width="140" height="104" as="geometry">
            <mxRectangle x="270" y="34" width="90" height="30" as="alternateBounds" />
          </mxGeometry>
        </mxCell>
        <mxCell id="m3P9-Rap83-5cIKMZRRc-167" value="requestId" style="text;strokeColor=#666666;fillColor=#f5f5f5;align=left;verticalAlign=top;spacingLeft=4;spacingRight=4;overflow=hidden;rotatable=0;points=[[0,0.5],[1,0.5]];portConstraint=eastwest;whiteSpace=wrap;html=1;fontColor=#333333;" vertex="1" parent="m3P9-Rap83-5cIKMZRRc-166">
          <mxGeometry y="26" width="140" height="26" as="geometry" />
        </mxCell>
        <mxCell id="m3P9-Rap83-5cIKMZRRc-168" value="reason" style="text;strokeColor=#666666;fillColor=#f5f5f5;align=left;verticalAlign=top;spacingLeft=4;spacingRight=4;overflow=hidden;rotatable=0;points=[[0,0.5],[1,0.5]];portConstraint=eastwest;whiteSpace=wrap;html=1;fontColor=#333333;" vertex="1" parent="m3P9-Rap83-5cIKMZRRc-166">
          <mxGeometry y="52" width="140" height="26" as="geometry" />
        </mxCell>
        <mxCell id="m3P9-Rap83-5cIKMZRRc-180" value="requestStatus" style="text;strokeColor=#666666;fillColor=#f5f5f5;align=left;verticalAlign=top;spacingLeft=4;spacingRight=4;overflow=hidden;rotatable=0;points=[[0,0.5],[1,0.5]];portConstraint=eastwest;whiteSpace=wrap;html=1;fontColor=#333333;" vertex="1" parent="m3P9-Rap83-5cIKMZRRc-166">
          <mxGeometry y="78" width="140" height="26" as="geometry" />
        </mxCell>
        <mxCell id="m3P9-Rap83-5cIKMZRRc-181" value="{Accepted, Rejected, Pending}" style="shape=note;whiteSpace=wrap;html=1;backgroundOutline=1;fontColor=#000000;darkOpacity=0.05;fillColor=#FFF9B2;strokeColor=none;fillStyle=solid;direction=west;gradientDirection=north;gradientColor=#FFF2A1;shadow=1;size=20;pointerEvents=1;" vertex="1" parent="1">
          <mxGeometry x="79.99999999999999" y="45" width="140" height="30" as="geometry" />
        </mxCell>
        <mxCell id="m3P9-Rap83-5cIKMZRRc-182" style="edgeStyle=orthogonalEdgeStyle;rounded=0;orthogonalLoop=1;jettySize=auto;html=1;entryX=0;entryY=0.5;entryDx=0;entryDy=0;entryPerimeter=0;endArrow=none;startFill=0;dashed=1;" edge="1" parent="1" source="m3P9-Rap83-5cIKMZRRc-180" target="m3P9-Rap83-5cIKMZRRc-181">
          <mxGeometry relative="1" as="geometry" />
        </mxCell>
        <mxCell id="m3P9-Rap83-5cIKMZRRc-186" value="1" style="text;html=1;align=center;verticalAlign=middle;resizable=0;points=[];autosize=1;strokeColor=none;fillColor=none;" vertex="1" parent="1">
          <mxGeometry x="530" y="224" width="30" height="30" as="geometry" />
        </mxCell>
        <mxCell id="m3P9-Rap83-5cIKMZRRc-188" style="edgeStyle=orthogonalEdgeStyle;rounded=0;orthogonalLoop=1;jettySize=auto;html=1;entryX=0.5;entryY=0;entryDx=0;entryDy=0;endArrow=none;startFill=0;" edge="1" parent="1" source="m3P9-Rap83-5cIKMZRRc-130" target="m3P9-Rap83-5cIKMZRRc-158">
          <mxGeometry relative="1" as="geometry">
            <Array as="points">
              <mxPoint x="160" y="250" />
              <mxPoint x="160" y="250" />
            </Array>
          </mxGeometry>
        </mxCell>
        <mxCell id="m3P9-Rap83-5cIKMZRRc-189" value="1" style="text;html=1;align=center;verticalAlign=middle;resizable=0;points=[];autosize=1;strokeColor=none;fillColor=none;" vertex="1" parent="1">
          <mxGeometry x="137.00000000000006" y="216" width="30" height="30" as="geometry" />
        </mxCell>
        <mxCell id="m3P9-Rap83-5cIKMZRRc-191" value="1" style="text;html=1;align=center;verticalAlign=middle;resizable=0;points=[];autosize=1;strokeColor=none;fillColor=none;" vertex="1" parent="1">
          <mxGeometry x="460.00000000000006" y="350" width="30" height="30" as="geometry" />
        </mxCell>
        <mxCell id="m3P9-Rap83-5cIKMZRRc-192" value="0..*" style="text;html=1;align=center;verticalAlign=middle;resizable=0;points=[];autosize=1;strokeColor=none;fillColor=none;" vertex="1" parent="1">
          <mxGeometry x="560" y="224" width="40" height="30" as="geometry" />
        </mxCell>
        <mxCell id="m3P9-Rap83-5cIKMZRRc-193" value="0..*" style="text;html=1;align=center;verticalAlign=middle;resizable=0;points=[];autosize=1;strokeColor=none;fillColor=none;fontFamily=Helvetica;fontSize=12;fontColor=default;" vertex="1" parent="1">
          <mxGeometry x="450.00000000000006" y="268" width="40" height="30" as="geometry" />
        </mxCell>
        <mxCell id="m3P9-Rap83-5cIKMZRRc-194" value="0..*" style="text;html=1;align=center;verticalAlign=middle;resizable=0;points=[];autosize=1;strokeColor=none;fillColor=none;" vertex="1" parent="1">
          <mxGeometry x="128.00000000000006" y="301" width="40" height="30" as="geometry" />
        </mxCell>
        <mxCell id="m3P9-Rap83-5cIKMZRRc-195" value="0..*" style="text;html=1;align=center;verticalAlign=middle;resizable=0;points=[];autosize=1;strokeColor=none;fillColor=none;" vertex="1" parent="1">
          <mxGeometry x="345" y="112" width="40" height="30" as="geometry" />
        </mxCell>
        <mxCell id="m3P9-Rap83-5cIKMZRRc-196" style="edgeStyle=orthogonalEdgeStyle;rounded=0;orthogonalLoop=1;jettySize=auto;html=1;entryX=0.214;entryY=1.038;entryDx=0;entryDy=0;entryPerimeter=0;endArrow=none;startFill=0;" edge="1" parent="1" source="m3P9-Rap83-5cIKMZRRc-128" target="m3P9-Rap83-5cIKMZRRc-180">
          <mxGeometry relative="1" as="geometry" />
        </mxCell>
        <mxCell id="m3P9-Rap83-5cIKMZRRc-197" value="1" style="text;html=1;align=center;verticalAlign=middle;resizable=0;points=[];autosize=1;strokeColor=none;fillColor=none;" vertex="1" parent="1">
          <mxGeometry x="225" y="128" width="30" height="30" as="geometry" />
        </mxCell>
        <mxCell id="m3P9-Rap83-5cIKMZRRc-198" value="0..*" style="text;html=1;align=center;verticalAlign=middle;resizable=0;points=[];autosize=1;strokeColor=none;fillColor=none;" vertex="1" parent="1">
          <mxGeometry x="270" y="112" width="40" height="30" as="geometry" />
        </mxCell>
      </root>
    </mxGraphModel>
  </diagram>
</mxfile>
